<svg xmlns="http://www.w3.org/2000/svg" viewBox="0 0 1400 420">
  <defs>
    <linearGradient id="bgb_sensores" x1="0" y1="0" x2="1" y2="1">
      <stop offset="0%" stop-color="#03102a"/>
      <stop offset="60%" stop-color="#0a1c4a"/>
      <stop offset="100%" stop-color="#1a0330"/>
    </linearGradient>
    <radialGradient id="glow_sensores" cx="50%" cy="50%" r="60%">
      <stop offset="0%" stop-color="#ff5fc4" stop-opacity="0.35"/>
      <stop offset="100%" stop-color="#ff5fc4" stop-opacity="0"/>
    </radialGradient>
  </defs>
  <rect width="1400" height="420" fill="url(#bgb_sensores)"/>
  <circle cx="1150" cy="150" r="260" fill="url(#glow_sensores)"/>
  
<g transform="translate(150,80)">
  <rect x="0" y="0" width="230" height="230" rx="14" fill="#0d1a3a" stroke="#4fd7ff" stroke-width="3"/>
  <rect x="40" y="40" width="150" height="150" rx="8" fill="#12296b"/>
  <g stroke="#4fd7ff" stroke-width="4">
    <line x1="0" y1="60" x2="40" y2="60"/><line x1="0" y1="100" x2="40" y2="100"/><line x1="0" y1="140" x2="40" y2="140"/><line x1="0" y1="180" x2="40" y2="180"/>
    <line x1="190" y1="60" x2="230" y2="60"/><line x1="190" y1="100" x2="230" y2="100"/><line x1="190" y1="140" x2="230" y2="140"/><line x1="190" y1="180" x2="230" y2="180"/>
    <line x1="60" y1="0" x2="60" y2="40"/><line x1="100" y1="0" x2="100" y2="40"/><line x1="140" y1="0" x2="140" y2="40"/><line x1="180" y1="0" x2="180" y2="40"/>
    <line x1="60" y1="190" x2="60" y2="230"/><line x1="100" y1="190" x2="100" y2="230"/><line x1="140" y1="190" x2="140" y2="230"/><line x1="180" y1="190" x2="180" y2="230"/>
  </g>
</g>

  <text x="700" y="180" text-anchor="middle" font-family="Arial, sans-serif" font-size="50" font-weight="800" fill="#ffffff">Sensores para IoT e Automação</text>
  <text x="700" y="225" text-anchor="middle" font-family="Arial, sans-serif" font-size="22" fill="#4fd7ff">Arduino · ESP32 · Raspberry Pi · CLP</text>

</svg>